<svg width="24" height="25" fill="none" xmlns="http://www.w3.org/2000/svg"><rect y=".704" width="24" height="24" rx="12" fill="#fff"/><path d="M14.406 12.704A2.409 2.409 0 0112 15.11a2.409 2.409 0 01-2.406-2.406A2.409 2.409 0 0112 10.297a2.409 2.409 0 012.406 2.407zm-2.406-8c-4.411 0-8 3.588-8 8 0 4.411 3.589 8 8 8a7.954 7.954 0 004.506-1.392l.023-.016-1.078-1.252-.018.011A6.33 6.33 0 0112 19.064a6.367 6.367 0 01-6.36-6.36A6.367 6.367 0 0112 6.344a6.367 6.367 0 016.36 6.36c0 .454-.05.914-.15 1.366-.2.826-.78 1.079-1.213 1.046-.436-.036-.947-.347-.95-1.108v-1.304A4.05 4.05 0 0012 8.657a4.05 4.05 0 00-4.046 4.047A4.05 4.05 0 0012 16.75c1.084 0 2.1-.424 2.867-1.194a2.6 2.6 0 002.214 1.203 2.71 2.71 0 001.624-.547c.479-.365.837-.891 1.035-1.524.031-.102.09-.336.09-.338l.001-.008A7.069 7.069 0 0020 12.704c0-4.412-3.589-8-8-8z" fill="#2B384A"/></svg>