<svg width="18" height="20" fill="none" xmlns="http://www.w3.org/2000/svg"><path d="M8.823.25a5.131 5.131 0 00-5.118 5.117 5.131 5.131 0 005.118 5.118 5.131 5.131 0 005.117-5.117A5.131 5.131 0 008.823.25zm8.782 14.325a4.77 4.77 0 00-.514-.939c-1.028-1.52-2.614-2.525-4.402-2.771-.223-.022-.47.022-.648.156a5.384 5.384 0 01-3.218 1.05 5.383 5.383 0 01-3.218-1.05.838.838 0 00-.648-.156 6.315 6.315 0 00-4.403 2.771c-.2.29-.38.626-.514.939-.067.134-.044.29.023.424.179.313.402.626.603.894.313.425.648.805 1.028 1.162.313.313.67.604 1.028.894a10.124 10.124 0 006.079 2.011c2.19 0 4.313-.693 6.078-2.011a9.832 9.832 0 001.028-.894 10.2 10.2 0 001.028-1.162c.223-.29.425-.581.603-.894.112-.134.134-.29.067-.424z" fill="#2B384A"/></svg>