<svg width="34" height="34" fill="none" xmlns="http://www.w3.org/2000/svg"><circle cx="16.778" cy="17" r="16.277" fill="#CEEDFF" fill-opacity=".25" stroke="url(#paint0_radial_11_199)"/><path d="M20.76 20.668h-6.6c-.95 0-1.795-.624-2.052-1.518l-2.23-7.558a.66.66 0 00-.644-.462H7.486a.734.734 0 110-1.467h1.748c.952 0 1.795.624 2.052 1.519l.418 1.416h11.221c.458 0 .893.218 1.162.583.267.363.344.816.211 1.244l-1.513 4.805a2.13 2.13 0 01-2.025 1.438zm-5.937 3.669a1.469 1.469 0 010-2.935c.81 0 1.468.658 1.468 1.467a1.47 1.47 0 01-1.468 1.468zm5.137 0a1.469 1.469 0 010-2.935 1.468 1.468 0 01-.001 2.935z" fill="#fff"/><defs><radialGradient id="paint0_radial_11_199" cx="0" cy="0" r="1" gradientUnits="userSpaceOnUse" gradientTransform="rotate(28.099 -22.057 5.523) scale(38.0367)"><stop stop-color="#fff"/><stop offset=".328" stop-color="#fff" stop-opacity="0"/><stop offset=".682" stop-color="#fff" stop-opacity="0"/><stop offset="1" stop-color="#fff"/></radialGradient></defs></svg>