<svg width="25" height="24" fill="none" xmlns="http://www.w3.org/2000/svg"><path d="M3.79 18.242c0 .003 0 .01-.004.018l.004-.018zm17.787.77a1.255 1.255 0 01-.45-.093l-2.661-.944-.02-.008a.483.483 0 00-.353-.005c-.065.025-.647.244-1.259.412-.33.09-1.484.387-2.41.387-2.367 0-4.579-.91-6.23-2.56a8.597 8.597 0 01-2.536-6.118c0-.593.064-1.183.19-1.762.412-1.904 1.504-3.636 3.073-4.875A9.13 9.13 0 0114.564 1.5c2.448 0 4.728.937 6.422 2.633 1.601 1.607 2.479 3.719 2.472 5.947a8.338 8.338 0 01-1.42 4.648l-.01.013-.034.047-.023.032-.007.013a1.007 1.007 0 00-.051.098l.738 2.622a1.124 1.124 0 01-1.074 1.46z" fill="#373737"/><path d="M15.013 19.94a.739.739 0 00-.482-.38c-.271-.071-.587-.06-.829-.077a9.458 9.458 0 01-6.038-2.754 9.338 9.338 0 01-2.657-5.284c-.066-.457-.066-.57-.066-.57a.75.75 0 00-1.313-.496s-.369.402-.543.806a7.598 7.598 0 00.515 7.034c.122.203.122.296.095.508l-.469 2.433a1.125 1.125 0 00.375 1.074l.022.018c.201.16.451.248.709.248.144 0 .288-.029.421-.084l2.509-.968a.378.378 0 01.268 0 8.665 8.665 0 002.99.563 8.249 8.249 0 003.51-.781c.257-.12.657-.25.892-.522a.703.703 0 00.091-.768z" fill="#373737"/><path d="M12.034 10c0 .552-.465 1-1.039 1-.573 0-1.038-.448-1.038-1s.465-1 1.038-1c.574 0 1.039.448 1.039 1zm3.461 0c0 .552-.464 1-1.038 1-.574 0-1.038-.448-1.038-1s.464-1 1.038-1c.574 0 1.038.448 1.038 1zm3.462 0c0 .552-.465 1-1.038 1-.574 0-1.039-.448-1.039-1s.465-1 1.039-1c.573 0 1.038.448 1.038 1z" fill="#fff"/></svg>