<svg width="131" height="18" fill="none" xmlns="http://www.w3.org/2000/svg"><path d="M130.541 6.795a.914.914 0 00-.789-.63l-4.978-.452-1.968-4.608a.917.917 0 00-1.686.001l-1.969 4.607-4.978.452a.918.918 0 00-.521 1.604l3.763 3.3-1.109 4.887a.915.915 0 001.363.99l4.294-2.566 4.292 2.567a.916.916 0 001.364-.99l-1.109-4.888 3.763-3.3a.917.917 0 00.268-.974zm-28.335 0a.913.913 0 00-.789-.63l-4.978-.452-1.968-4.608a.917.917 0 00-1.686.001l-1.968 4.607-4.98.452a.917.917 0 00-.52 1.604l3.763 3.3-1.11 4.887a.916.916 0 001.364.99l4.294-2.566 4.292 2.567a.917.917 0 001.364-.99l-1.11-4.888 3.764-3.3a.917.917 0 00.268-.974zm-28.334 0a.915.915 0 00-.79-.63l-4.977-.452-1.969-4.608a.917.917 0 00-1.686.001l-1.968 4.607-4.979.452a.917.917 0 00-.52 1.604l3.763 3.3-1.11 4.887a.916.916 0 001.363.99l4.294-2.566 4.293 2.567a.917.917 0 001.364-.99l-1.11-4.888 3.763-3.3a.917.917 0 00.269-.974zm-28.335 0a.915.915 0 00-.789-.63l-4.978-.452-1.969-4.608a.917.917 0 00-1.685.001l-1.969 4.607-4.979.452a.916.916 0 00-.52 1.604l3.763 3.3-1.11 4.887a.916.916 0 001.363.99l4.294-2.566 4.293 2.567a.917.917 0 001.364-.99l-1.11-4.888 3.763-3.3a.917.917 0 00.27-.974zm-28.335.001a.915.915 0 00-.789-.63l-4.978-.452-1.968-4.607a.917.917 0 00-1.686 0L5.812 5.715l-4.979.452a.917.917 0 00-.52 1.604l3.763 3.3-1.11 4.888a.916.916 0 001.364.99l4.294-2.566 4.292 2.566a.917.917 0 001.364-.99l-1.11-4.888 3.763-3.3a.917.917 0 00.27-.974z" fill="#fff"/></svg>