<svg width="24" height="25" fill="none" xmlns="http://www.w3.org/2000/svg"><circle cx="12" cy="12.221" r="12" fill="#fff"/><path d="M11.852 9.815a2.305 2.305 0 00-2.303 2.303 2.305 2.305 0 002.303 2.302 2.305 2.305 0 002.302-2.302 2.305 2.305 0 00-2.302-2.303zm0 3.29a.988.988 0 010-1.974.988.988 0 010 1.973z" fill="#2B384A"/><path d="M19.088 11.46h-1.354a5.93 5.93 0 00-5.225-5.225V4.881a.658.658 0 00-1.315 0v1.354a5.93 5.93 0 00-5.225 5.225H4.615a.658.658 0 000 1.315h1.354A5.93 5.93 0 0011.194 18v1.355a.658.658 0 001.315 0V18a5.93 5.93 0 005.225-5.225h1.354a.658.658 0 000-1.315zm-7.236 5.263a4.61 4.61 0 01-4.606-4.605 4.61 4.61 0 014.606-4.606 4.61 4.61 0 014.605 4.606 4.61 4.61 0 01-4.605 4.605z" fill="#2B384A"/></svg>