<svg width="22" height="21" fill="none" xmlns="http://www.w3.org/2000/svg"><path fill-rule="evenodd" clip-rule="evenodd" d="M13.707.586A6.734 6.734 0 004.264 5.99L3.96 8.721c-.044.39-.065.585-.096.776a8 8 0 01-.848 2.511c-.091.17-.192.339-.394.675l-.698 1.163c-.804 1.344-1.207 2.016-.92 2.524.287.507 1.07.507 2.636.507h14.634c1.566 0 2.349 0 2.636-.507.287-.507-.116-1.179-.921-2.522l-.698-1.163a16.89 16.89 0 01-.394-.675 8.003 8.003 0 01-.91-2.985 5.411 5.411 0 01-4.28-8.438zm2.402 1.811a2.412 2.412 0 001.538 3.569 6.71 6.71 0 00-1.538-3.569z" fill="#2B384A"/><path d="M7.34 16.876a3.616 3.616 0 007.233 0H7.341z" fill="#2B384A"/><circle cx="18.19" cy="3.616" r="2.911" fill="#F40B0B" stroke="#F40B0B"/></svg>