<svg width="16" height="15" fill="none" xmlns="http://www.w3.org/2000/svg"><path fill-rule="evenodd" clip-rule="evenodd" d="M7.635 14.028a.896.896 0 001.18 0c.62-.54 1.215-1.048 1.741-1.496 1.54-1.312 2.868-2.445 3.793-3.56 1.034-1.248 1.515-2.43 1.515-3.723 0-1.255-.43-2.413-1.212-3.26a4.109 4.109 0 00-3.056-1.33c-.882 0-1.69.278-2.4.828a4.912 4.912 0 00-.97 1.013 4.911 4.911 0 00-.971-1.013 3.843 3.843 0 00-2.4-.829c-1.18 0-2.266.473-3.057 1.33C1.017 2.836.586 3.994.586 5.25c0 1.293.482 2.475 1.516 3.723.924 1.116 2.254 2.248 3.793 3.56l.002.002c.525.448 1.12.955 1.738 1.494z" fill="#fff"/></svg>