<svg width="35" height="34" fill="none" xmlns="http://www.w3.org/2000/svg"><circle cx="17.225" cy="17" r="16.277" fill="#CEEDFF" fill-opacity=".25" stroke="url(#paint0_radial_11_200)"/><path fill-rule="evenodd" clip-rule="evenodd" d="M16.635 24.028a.896.896 0 001.18 0c.62-.54 1.215-1.048 1.741-1.496 1.54-1.312 2.868-2.445 3.793-3.56 1.034-1.248 1.515-2.43 1.515-3.723 0-1.255-.43-2.413-1.212-3.26a4.108 4.108 0 00-3.056-1.33c-.882 0-1.69.278-2.4.828a4.91 4.91 0 00-.97 1.013 4.91 4.91 0 00-.971-1.013 3.843 3.843 0 00-2.4-.829c-1.18 0-2.266.473-3.057 1.33-.781.848-1.212 2.006-1.212 3.261 0 1.292.482 2.475 1.516 3.723.924 1.115 2.254 2.248 3.793 3.56l.002.002c.525.448 1.12.955 1.738 1.494z" fill="#fff"/><defs><radialGradient id="paint0_radial_11_200" cx="0" cy="0" r="1" gradientUnits="userSpaceOnUse" gradientTransform="rotate(28.099 -21.834 6.416) scale(38.0367)"><stop stop-color="#fff"/><stop offset=".328" stop-color="#fff" stop-opacity="0"/><stop offset=".682" stop-color="#fff" stop-opacity="0"/><stop offset="1" stop-color="#fff"/></radialGradient></defs></svg>