<svg width="15" height="18" fill="none" xmlns="http://www.w3.org/2000/svg"><path d="M14.618 15.197a.675.675 0 01-.677.672h-.677v.673a.674.674 0 01-.677.672.675.675 0 01-.676-.672v-.673h-.677a.675.675 0 01-.677-.672c0-.371.303-.672.677-.672h.677v-.673c0-.371.303-.672.676-.672.374 0 .677.3.677.672v.672h.677c.374 0 .677.302.677.673zm0-10.49v6.455a.675.675 0 01-.677.673.675.675 0 01-.677-.673V5.38h-1.353v2.018a.675.675 0 01-.677.672.675.675 0 01-.677-.672V5.379H4.06v2.018a.675.675 0 01-.676.672.675.675 0 01-.677-.672V5.379H1.353v10.49h7.174c.374 0 .677.301.677.673a.675.675 0 01-.677.672H.677A.675.675 0 010 16.542V4.707c0-.371.303-.672.677-.672h2.062C3.008 1.765 4.955 0 7.309 0s4.3 1.766 4.57 4.035h2.062c.374 0 .677.3.677.672zm-4.106-.672a3.247 3.247 0 00-3.203-2.69 3.247 3.247 0 00-3.203 2.69h6.406z" fill="#2B384A"/></svg>