<svg width="75" height="66" fill="none" xmlns="http://www.w3.org/2000/svg"><path opacity=".4" d="M35.024 61.961L37 59.705l-.002-.002-1.974 2.258zm5.208.001l-1.975-2.258 1.975 2.258zm7.675-6.601l1.946 2.284.004-.004-1.95-2.28zm.001-.001l-1.946-2.283-.004.003 1.95 2.28zm16.725-15.699l-2.31-1.914 2.31 1.914zM65.97 8.866l2.206-2.034-2.206 2.034zM41.908 6.654l1.835 2.373-1.835-2.373zm-4.28 4.469l-2.43 1.758 2.43 3.36 2.43-3.36-2.43-1.758zm-4.28-4.469l1.836-2.373-1.835 2.373zM9.288 8.866L7.08 6.832l2.206 2.034zm1.337 30.796l-2.31 1.914 2.31-1.914zm16.727 15.7l1.969-2.264-.012-.01-.011-.01-1.946 2.284zm.012.01l-1.969 2.264.012.01.011.01 1.946-2.284zm10.265 4.568a.95.95 0 01-.628-.235l-3.953 4.513a6.95 6.95 0 004.581 1.722v-6zm.629-.235a.954.954 0 01-.629.235v6c1.684 0 3.312-.61 4.58-1.72l-3.951-4.515zm7.705-6.628a777.235 777.235 0 00-7.705 6.627l3.95 4.517c2.711-2.372 5.326-4.6 7.646-6.577l-3.891-4.567zm-.004.003v.001l3.9 4.56v-.001l-3.9-4.56zm16.365-15.333c-3.876 4.677-9.507 9.489-16.36 15.33l3.891 4.566c6.718-5.725 12.808-10.903 17.089-16.067l-4.62-3.829zm5.991-14.5c0 4.837-1.762 9.398-5.991 14.5l4.62 3.829c4.888-5.899 7.371-11.769 7.371-18.329h-6zM63.764 10.9c2.889 3.133 4.55 7.493 4.55 12.348h6c0-6.216-2.134-12.07-6.138-16.415L63.764 10.9zM52.495 6c4.375 0 8.358 1.74 11.27 4.9l4.412-4.068C64.113 2.426 58.524 0 52.494 0v6zm-8.75 3.027C46.364 7.001 49.283 6 52.494 6V0c-4.567 0-8.772 1.458-12.421 4.281l3.67 4.746zm-3.685 3.854c1.11-1.533 2.346-2.819 3.684-3.854l-3.67-4.746c-1.827 1.413-3.457 3.123-4.876 5.084l4.862 3.516zm-8.546-3.854c1.338 1.035 2.576 2.32 3.684 3.854l4.862-3.516c-1.418-1.961-3.049-3.671-4.875-5.084l-3.671 4.746zM22.763 6c3.211 0 6.13 1 8.75 3.027l3.67-4.746C31.535 1.458 27.33 0 22.764 0v6zm-11.27 4.9C14.404 7.74 18.386 6 22.762 6V0c-6.03 0-11.62 2.426-15.682 6.832l4.411 4.067zM6.941 23.246c0-4.855 1.662-9.214 4.55-12.348l-4.41-4.066C3.076 11.176.94 17.031.94 23.247h6zm5.992 14.5c-4.23-5.102-5.992-9.664-5.992-14.5h-6c0 6.56 2.484 12.43 7.372 18.33l4.62-3.83zm16.363 15.331c-6.855-5.841-12.487-10.654-16.363-15.33l-4.62 3.828c4.28 5.165 10.371 10.343 17.091 16.07l3.892-4.568zm.034.03l-.011-.01-3.938 4.528.012.01 3.937-4.528zm7.667 6.595a785.857 785.857 0 00-7.69-6.614l-3.891 4.567a776.072 776.072 0 017.632 6.564l3.95-4.517z" fill="#2B384A"/></svg>