<svg width="24" height="25" fill="none" xmlns="http://www.w3.org/2000/svg"><path d="M20.484 4.218C15.797-.468 8.199-.467 3.514 4.22c-4.686 4.687-4.685 12.285.002 16.97 4.687 4.686 12.285 4.685 16.97-.002a12 12 0 00-.002-16.97zm-2.31 13.202l-.002.002v-.004l-.608.604a3.2 3.2 0 01-3.02.864 10.63 10.63 0 01-3.088-1.384 14.262 14.262 0 01-2.436-1.964A14.378 14.378 0 017.2 13.33a11.198 11.198 0 01-1.368-2.768 3.2 3.2 0 01.8-3.268l.712-.712c.198-.2.52-.2.718-.002l2.25 2.25c.199.198.2.52.002.718L8.991 10.87c-.379.374-.426.97-.112 1.4a15.441 15.441 0 001.58 1.844c.64.643 1.336 1.228 2.08 1.748.43.3 1.012.249 1.384-.12l1.276-1.296c.198-.2.52-.2.718-.002l2.254 2.258c.199.197.2.52.002.718z" fill="#fff"/></svg>