<svg width="17" height="18" fill="none" xmlns="http://www.w3.org/2000/svg"><path d="M4.566 4.754A4.053 4.053 0 018.607.713a4.053 4.053 0 014.041 4.04 4.053 4.053 0 01-4.04 4.042 4.053 4.053 0 01-4.042-4.041zm11.405 8.469c-.14.242-.3.473-.483.71h0l-.007.01a8.769 8.769 0 01-.873.986 8.3 8.3 0 01-.868.754 8.582 8.582 0 01-5.153 1.704 8.582 8.582 0 01-5.144-1.697 11.481 11.481 0 01-.876-.761l-.007-.007-.006-.006a7.1 7.1 0 01-.86-.973h0l-.004-.004a8.038 8.038 0 01-.463-.674 4.34 4.34 0 01.375-.671h0l.007-.01a5.127 5.127 0 013.574-2.25l.018-.003.018-.003a.112.112 0 01.046.003.184.184 0 01.064.03h0l.004.003a5.482 5.482 0 003.274 1.07 5.482 5.482 0 003.275-1.07h0l.004-.003a.276.276 0 01.159-.026c1.441.202 2.726 1.015 3.564 2.253h0l.004.006c.14.203.262.413.358.63z" stroke="#fff" stroke-width="1.2"/></svg>