<svg width="17" height="16" fill="none" xmlns="http://www.w3.org/2000/svg"><path d="M7.6 8a.615.615 0 111.232 0A.615.615 0 017.6 8zm3.078-.615a.615.615 0 100 1.23.615.615 0 000-1.23zM12.524 8a.615.615 0 111.23 0 .615.615 0 01-1.23 0zm.616 1.846a.615.615 0 100 1.23.615.615 0 000-1.23zm-3.077.615a.615.615 0 111.23 0 .615.615 0 01-1.23 0zm-1.847-.615a.615.615 0 100 1.231.615.615 0 000-1.23zm-3.076.615a.615.615 0 111.23 0 .615.615 0 01-1.23 0zm-1.847-.615a.615.615 0 100 1.23.615.615 0 000-1.23zm-.615 3.077a.615.615 0 111.23 0 .615.615 0 01-1.23 0zm3.077-.615a.615.615 0 100 1.23.615.615 0 000-1.23zm1.845.615a.615.615 0 111.232 0 .615.615 0 01-1.231 0zm3.078-.615a.615.615 0 100 1.23.615.615 0 000-1.23z" fill="#2B384A"/><path fill-rule="evenodd" clip-rule="evenodd" d="M4.524 0c.34 0 .615.276.615.615v.616h6.154V.615a.615.615 0 111.231 0v.616h1.846c1.02 0 1.846.826 1.846 1.846v11.077c0 1.02-.826 1.846-1.846 1.846H2.062a1.846 1.846 0 01-1.846-1.846V3.077c0-1.02.827-1.846 1.846-1.846H3.91V.615c0-.34.275-.615.615-.615zm6.77 2.462v.615a.615.615 0 101.23 0v-.615h1.846c.34 0 .616.275.616.615v1.846H1.447V3.077c0-.34.276-.615.615-.615H3.91v.615a.615.615 0 101.23 0v-.615h6.154zM1.446 6.154v8c0 .34.276.615.615.615H14.37c.34 0 .616-.275.616-.615v-8H1.447z" fill="#2B384A"/></svg>