<svg width="14" height="14" fill="none" xmlns="http://www.w3.org/2000/svg"><path d="M13.397 0H.603a.603.603 0 00-.536.318.582.582 0 00.048.62l4.687 6.44.005.007c.17.225.262.496.263.776v5.251a.576.576 0 00.174.416.606.606 0 00.66.126l2.634-.98a.557.557 0 00.393-.549V8.161c0-.28.092-.551.262-.776l.005-.006L13.885.937a.582.582 0 00.048-.619.603.603 0 00-.536-.318zm-4.79 6.964a1.99 1.99 0 00-.405 1.197v4.178l-2.404.894V8.16c0-.431-.142-.85-.404-1.197L.844.711h12.313l-4.55 6.253z" fill="#fff"/><path d="M13.393.388C9.24.383.906.376.789.388-.27.549 4.829 6.748 5.15 7.263c.324.514.28 6.316.397 6.375.094.047 2.037-.744 2.997-1.146.02-1.302.047-4.007 0-4.407-.047-.4 3.055-4.7 4.613-6.801l.235-.896z" fill="#fff"/></svg>