<svg width="19" height="16" fill="none" xmlns="http://www.w3.org/2000/svg"><path d="M14.76 11.668h-6.6c-.95 0-1.795-.624-2.052-1.518l-2.23-7.558a.66.66 0 00-.644-.462H1.486a.733.733 0 110-1.467h1.748c.952 0 1.795.624 2.052 1.519l.418 1.416h11.222c.457 0 .892.218 1.16.583.268.362.345.816.212 1.244l-1.513 4.805a2.13 2.13 0 01-2.025 1.438zm-5.937 3.669a1.469 1.469 0 010-2.935 1.469 1.469 0 010 2.935zm5.137 0c-.81 0-1.468-.658-1.468-1.467 0-.81.658-1.468 1.467-1.468a1.469 1.469 0 010 2.935z" fill="#fff"/></svg>