<svg width="64" height="65" fill="none" xmlns="http://www.w3.org/2000/svg"><g opacity=".4"><path d="M39.77 3.73A19.818 19.818 0 0031.654 2c-10.13 0-18.639 7.616-19.757 17.683L11 27.747c-.128 1.15-.192 1.725-.283 2.29a23.615 23.615 0 01-2.502 7.413c-.27.504-.568 1-1.163 1.992l-2.06 3.434c-2.379 3.965-3.568 5.947-2.72 7.444.848 1.498 3.16 1.498 7.782 1.498h43.197c4.623 0 6.934 0 7.782-1.498.848-1.497-.341-3.48-2.72-7.444l-2.06-3.434c-.595-.992-.893-1.488-1.163-1.992a23.616 23.616 0 01-2.502-7.413 30.459 30.459 0 01-.183-1.4c-8.544-.315-15.375-7.34-15.375-15.962 0-3.315 1.01-6.394 2.739-8.946z" stroke="#2B384A" stroke-width="4"/><path d="M46.862 9.077a7.12 7.12 0 004.54 10.534 19.81 19.81 0 00-4.54-10.534z" stroke="#2B384A" stroke-width="4"/><circle cx="52.654" cy="13" r="11" fill="#fff"/><path d="M20.98 51.818a10.675 10.675 0 1021.35 0H20.979z" stroke="#2B384A" stroke-width="4" stroke-linecap="round"/><circle cx="53.004" cy="12.675" r="7.617" fill="#F40B0B" stroke="#F40B0B"/></g></svg>