<svg width="113" height="30" fill="none" xmlns="http://www.w3.org/2000/svg"><path d="M.968 29.228h20.238v-5.287H7.36V1.19H.97v28.038zm35.537.481c8.679 0 15.11-6.128 15.11-14.5S45.183.709 36.504.709c-8.719 0-15.11 6.168-15.11 14.5s6.391 14.5 15.11 14.5zm0-5.528c-4.932 0-8.64-3.645-8.64-8.972s3.709-8.972 8.64-8.972c4.931 0 8.64 3.645 8.64 8.972s-3.709 8.972-8.64 8.972zm37.389-1.201c-1.618.88-3.235 1.201-4.971 1.201-5.286 0-8.955-3.725-8.955-8.972 0-5.327 3.669-8.972 9.034-8.972 2.8 0 5.128 1.001 7.14 3.164l4.103-3.845C77.562 2.39 73.538.709 68.686.709c-8.797 0-15.188 6.048-15.188 14.5s6.39 14.5 15.07 14.5c3.945 0 8.127-1.242 11.164-3.565V14.768h-5.838v8.212zm23.965 6.729c8.679 0 15.109-6.128 15.109-14.5s-6.43-14.5-15.11-14.5c-8.718 0-15.109 6.168-15.109 14.5s6.391 14.5 15.11 14.5zm0-5.528c-4.931 0-8.64-3.645-8.64-8.972s3.709-8.972 8.64-8.972c4.931 0 8.639 3.645 8.639 8.972s-3.708 8.972-8.64 8.972z" fill="#fff"/></svg>