<svg width="112" height="30" fill="none" xmlns="http://www.w3.org/2000/svg"><path d="M0 28.77h20.238v-5.288H6.39V.731H0v28.038zm35.536.48c8.68 0 15.11-6.128 15.11-14.5S44.216.25 35.536.25c-8.718 0-15.109 6.169-15.109 14.5s6.391 14.5 15.11 14.5zm0-5.528c-4.93 0-8.64-3.645-8.64-8.972s3.71-8.972 8.64-8.972c4.932 0 8.64 3.645 8.64 8.972s-3.708 8.972-8.64 8.972zm37.389-1.202c-1.617.882-3.235 1.202-4.97 1.202-5.287 0-8.956-3.725-8.956-8.972 0-5.327 3.67-8.972 9.035-8.972 2.8 0 5.128 1.001 7.14 3.164l4.103-3.845C76.594 1.932 72.57.25 67.717.25 58.92.25 52.53 6.298 52.53 14.75s6.39 14.5 15.07 14.5c3.945 0 8.126-1.242 11.164-3.565V14.31h-5.839v8.212zm23.965 6.73c8.68 0 15.11-6.128 15.11-14.5S105.57.25 96.89.25c-8.718 0-15.109 6.169-15.109 14.5s6.391 14.5 15.11 14.5zm0-5.528c-4.93 0-8.639-3.645-8.639-8.972s3.708-8.972 8.64-8.972c4.931 0 8.639 3.645 8.639 8.972s-3.708 8.972-8.64 8.972z" fill="#2B384A"/></svg>