<svg width="19" height="16" viewBox="0 0 19 16" fill="none" xmlns="http://www.w3.org/2000/svg">
<path d="M14.7596 11.6684H8.16073C7.20912 11.6684 6.36537 11.044 6.10784 10.1497L3.87741 2.59185C3.79817 2.31818 3.53477 2.13036 3.23396 2.13036H1.48629C1.08056 2.13036 0.752594 1.80166 0.752594 1.39666C0.752594 0.99166 1.08056 0.662964 1.48629 0.662964H3.23396C4.18556 0.662964 5.02858 1.28734 5.28611 2.18172L5.70358 3.59775H16.9255C17.3833 3.59775 17.8176 3.81566 18.0869 4.18104C18.354 4.54348 18.431 4.99691 18.2982 5.42539L16.7846 10.2296C16.4882 11.0969 15.676 11.6684 14.7596 11.6684Z" fill="white"/>
<path d="M8.82326 15.3369C8.01399 15.3369 7.35586 14.6788 7.35586 13.8695C7.35586 13.0602 8.01399 12.4021 8.82326 12.4021C9.63252 12.4021 10.2906 13.0602 10.2906 13.8695C10.2906 14.6788 9.63252 15.3369 8.82326 15.3369Z" fill="white"/>
<path d="M13.9591 15.3369C13.1499 15.3369 12.4917 14.6788 12.4917 13.8695C12.4917 13.0602 13.1499 12.4021 13.9591 12.4021C14.7684 12.4021 15.4265 13.0602 15.4265 13.8695C15.4265 14.6788 14.7684 15.3369 13.9591 15.3369Z" fill="white"/>
</svg>
