<svg width="20" height="16" viewBox="0 0 20 16" fill="none" xmlns="http://www.w3.org/2000/svg">
<path d="M15.8596 5.75851C15.7555 5.43653 15.4699 5.20784 15.1321 5.17739L10.5426 4.76066L8.72778 0.512936C8.59397 0.201632 8.28921 0.00012207 7.95061 0.00012207C7.61201 0.00012207 7.30726 0.201632 7.17345 0.513664L5.35864 4.76066L0.76843 5.17739C0.431164 5.20857 0.146308 5.43653 0.0416103 5.75851C-0.0630877 6.08049 0.0336032 6.43365 0.288736 6.65627L3.75784 9.69869L2.73488 14.2048C2.66003 14.5362 2.78863 14.8786 3.06354 15.0774C3.2113 15.1841 3.38418 15.2385 3.55852 15.2385C3.70883 15.2385 3.85793 15.1979 3.99174 15.1179L7.95061 12.7518L11.908 15.1179C12.1976 15.2921 12.5627 15.2762 12.837 15.0774C13.112 14.878 13.2405 14.5354 13.1656 14.2048L12.1427 9.69869L15.6118 6.65687C15.8669 6.43365 15.9643 6.0811 15.8596 5.75851Z" fill="white"/>
</svg>
