<svg width="75" height="66" viewBox="0 0 75 66" fill="none" xmlns="http://www.w3.org/2000/svg">
<path opacity="0.4" d="M35.0236 61.9613L37.0003 59.7045L36.9984 59.7029L35.0236 61.9613ZM40.2321 61.9623L38.2572 59.704L38.2565 59.7047L40.2321 61.9623ZM47.9073 55.3609L49.8528 57.6445L49.8574 57.6406L47.9073 55.3609ZM47.9083 55.36L45.9623 53.0767L45.9581 53.0803L47.9083 55.36ZM64.6327 39.6614L62.3229 37.747L62.3228 37.7472L64.6327 39.6614ZM65.9702 8.8659L68.1759 6.83246L68.1758 6.83235L65.9702 8.8659ZM41.9083 6.65411L43.7435 9.0273L43.7436 9.02719L41.9083 6.65411ZM37.6281 11.1229L35.1972 12.8809L37.6276 16.2418L40.0587 12.8814L37.6281 11.1229ZM33.3485 6.65411L35.184 4.28121L35.1838 4.28104L33.3485 6.65411ZM9.28658 8.8659L7.08098 6.83235L7.08088 6.83246L9.28658 8.8659ZM10.624 39.6619L8.31414 41.5762L8.31422 41.5762L10.624 39.6619ZM27.351 55.3619L29.3196 53.0981L29.3083 53.0883L29.2968 53.0785L27.351 55.3619ZM27.3628 55.3722L25.3942 57.6359L25.4056 57.6458L25.417 57.6556L27.3628 55.3722ZM37.6281 59.94C37.3952 59.94 37.1732 59.856 37.0003 59.7045L33.047 64.218C34.3154 65.329 35.9428 65.94 37.6281 65.94V59.94ZM38.2565 59.7047C38.084 59.8556 37.8611 59.94 37.6281 59.94V65.94C39.3124 65.94 40.9399 65.3294 42.2077 64.2199L38.2565 59.7047ZM45.9618 53.0772C43.6435 55.0523 41.0016 57.3041 38.2572 59.704L42.207 64.2206C44.9183 61.8495 47.5326 59.6212 49.8528 57.6445L45.9618 53.0772ZM45.9581 53.0803L45.9572 53.0811L49.8574 57.6406L49.8584 57.6397L45.9581 53.0803ZM62.3228 37.7472C58.447 42.4241 52.8162 47.2356 45.9624 53.0767L49.8542 57.6433C56.5724 51.9178 62.6624 46.7405 66.9426 41.5756L62.3228 37.7472ZM68.3143 23.2474C68.3143 28.0836 66.5518 32.6446 62.3229 37.747L66.9425 41.5758C71.8312 35.6773 74.3143 29.807 74.3143 23.2474H68.3143ZM63.7645 10.8993C66.6528 14.0324 68.3143 18.3922 68.3143 23.2474H74.3143C74.3143 17.0309 72.1804 11.1762 68.1759 6.83246L63.7645 10.8993ZM52.4938 6C56.8694 6 60.8522 7.74067 63.7646 10.8995L68.1758 6.83235C64.113 2.42591 58.5239 0 52.4938 0V6ZM43.7436 9.02719C46.364 7.0006 49.2828 6 52.4938 6V0C47.9269 0 43.7225 1.45843 40.0729 4.28104L43.7436 9.02719ZM40.0587 12.8814C41.1683 11.3476 42.4054 10.062 43.7435 9.0273L40.0731 4.28092C38.2458 5.69393 36.6158 7.40398 35.1975 9.36451L40.0587 12.8814ZM31.5129 9.02701C32.851 10.0621 34.0885 11.3478 35.1972 12.8809L40.0591 9.36497C38.6408 7.40379 37.0102 5.69386 35.184 4.28121L31.5129 9.02701ZM22.7629 6C25.974 6 28.8928 7.0006 31.5131 9.02718L35.1838 4.28104C31.5342 1.45843 27.3299 0 22.7629 0V6ZM11.4922 10.8995C14.4046 7.74063 18.3869 6 22.7629 6V0C16.7323 0 11.1437 2.42595 7.08098 6.83235L11.4922 10.8995ZM6.94189 23.2474C6.94189 18.3924 8.60377 14.0326 11.4923 10.8993L7.08088 6.83246C3.0765 11.1761 0.941895 17.0307 0.941895 23.2474H6.94189ZM12.9339 37.7476C8.70486 32.6445 6.94189 28.0834 6.94189 23.2474H0.941895C0.941895 29.8071 3.42569 35.6774 8.31414 41.5762L12.9339 37.7476ZM29.2968 53.0785C22.4416 47.2366 16.8098 42.4242 12.9339 37.7476L8.31422 41.5762C12.5946 46.7408 18.6854 51.9188 25.4051 57.6452L29.2968 53.0785ZM29.3314 53.1084L29.3196 53.0981L25.3824 57.6256L25.3942 57.6359L29.3314 53.1084ZM36.9984 59.7029C34.2603 57.3087 31.6224 55.0605 29.3086 53.0887L25.417 57.6556C27.7334 59.6294 30.3436 61.8541 33.0489 64.2197L36.9984 59.7029Z" fill="#2B384A"/>
</svg>
