<svg width="14" height="14" viewBox="0 0 14 14" fill="none" xmlns="http://www.w3.org/2000/svg">
<path d="M13.3969 1.05417e-06H0.602992C0.377342 -0.000415362 0.170473 0.122566 0.067323 0.318419C-0.0372498 0.51691 -0.0188962 0.755933 0.114701 0.937212L4.80184 7.37887C4.8034 7.38109 4.80511 7.38317 4.80668 7.38539C4.97698 7.6097 5.06903 7.88134 5.0696 8.16062V13.4124C5.0686 13.568 5.13121 13.7174 5.2436 13.8277C5.356 13.9381 5.50881 14 5.66816 14C5.74925 14 5.82935 13.9842 5.90419 13.9539L8.538 12.9741C8.77404 12.9039 8.93068 12.6866 8.93068 12.425V8.16062C8.93111 7.88148 9.02331 7.6097 9.19347 7.38539C9.19503 7.38317 9.19674 7.38109 9.19831 7.37887L13.8853 0.936934C14.0189 0.755794 14.0372 0.51691 13.9327 0.318419C13.8295 0.122566 13.6227 -0.000415362 13.3969 1.05417e-06ZM8.60615 6.9644C8.34437 7.31099 8.2028 7.73004 8.20195 8.16062V12.3386L5.79805 13.2328V8.16062C5.7972 7.73004 5.65564 7.31099 5.39371 6.9644L0.843296 0.710682H13.1567L8.60615 6.9644Z" fill="white"/>
<path d="M13.3926 0.387571C9.24016 0.382667 0.905995 0.375803 0.788571 0.387571C-0.268999 0.549209 4.82824 6.74836 5.15143 7.26252C5.47461 7.77667 5.43054 13.5793 5.54806 13.638C5.64208 13.6851 7.5851 12.8937 8.54485 12.4922C8.56444 11.1897 8.59186 8.48474 8.54485 8.08517C8.49784 7.68559 11.6004 3.38432 13.1576 1.28362L13.3926 0.387571Z" fill="white"/>
</svg>
