<svg width="24" height="25" viewBox="0 0 24 25" fill="none" xmlns="http://www.w3.org/2000/svg">
<circle cx="12" cy="12.2207" r="12" fill="white"/>
<path d="M11.8516 9.81494C10.5822 9.81494 9.54895 10.8479 9.54895 12.1176C9.54895 13.3874 10.5822 14.4203 11.8516 14.4203C13.121 14.4203 14.1543 13.3874 14.1543 12.1176C14.1543 10.8479 13.121 9.81494 11.8516 9.81494ZM11.8516 13.1045C11.3075 13.1045 10.8648 12.6617 10.8648 12.1176C10.8648 11.5735 11.3075 11.1308 11.8516 11.1308C12.3957 11.1308 12.8385 11.5735 12.8385 12.1176C12.8385 12.6617 12.3957 13.1045 11.8516 13.1045Z" fill="#2B384A"/>
<path d="M19.0885 11.4596H17.7339C17.4293 8.71976 15.2493 6.5398 12.5095 6.23519V4.88056C12.5095 4.5174 12.2147 4.22266 11.8516 4.22266C11.4884 4.22266 11.1937 4.5174 11.1937 4.88056V6.23519C8.45383 6.5398 6.27387 8.71976 5.96926 11.4596H4.61463C4.25147 11.4596 3.95673 11.7544 3.95673 12.1175C3.95673 12.4807 4.25147 12.7754 4.61463 12.7754H5.96926C6.27387 15.5153 8.45383 17.6952 11.1937 17.9998V19.3545C11.1937 19.7176 11.4884 20.0124 11.8516 20.0124C12.2147 20.0124 12.5095 19.7176 12.5095 19.3545V17.9998C15.2493 17.6952 17.4293 15.5153 17.7339 12.7754H19.0885C19.4517 12.7754 19.7464 12.4807 19.7464 12.1175C19.7464 11.7544 19.4517 11.4596 19.0885 11.4596ZM11.8516 16.7228C9.31207 16.7228 7.24625 14.657 7.24625 12.1175C7.24625 9.578 9.31207 7.51218 11.8516 7.51218C14.3911 7.51218 16.4569 9.578 16.4569 12.1175C16.4569 14.657 14.3911 16.7228 11.8516 16.7228Z" fill="#2B384A"/>
</svg>
