<svg width="17" height="16" viewBox="0 0 17 16" fill="none" xmlns="http://www.w3.org/2000/svg">
<path fill-rule="evenodd" clip-rule="evenodd" d="M1.41943 7.99984C1.41943 4.18959 4.50803 1.10083 8.31793 1.10083C12.1278 1.10083 15.2164 4.18959 15.2164 7.99984C15.2164 11.8101 12.1278 14.8988 8.31793 14.8988C4.50803 14.8988 1.41943 11.8101 1.41943 7.99984ZM8.31793 0.10083C3.95568 0.10083 0.419434 3.63737 0.419434 7.99984C0.419434 12.3623 3.95568 15.8988 8.31793 15.8988C12.6802 15.8988 16.2164 12.3623 16.2164 7.99984C16.2164 3.63737 12.6802 0.10083 8.31793 0.10083ZM7.71631 8.60086V2.73991C7.91376 2.71757 8.11451 2.70609 8.31793 2.70609C11.2413 2.70609 13.6112 5.07618 13.6112 7.99984C13.6112 8.20306 13.5997 8.4036 13.5774 8.60086H7.71631Z" fill="#2B384A"/>
</svg>
