<svg width="15" height="18" viewBox="0 0 15 18" fill="none" xmlns="http://www.w3.org/2000/svg">
<path d="M14.6176 15.1969C14.6176 15.5683 14.3146 15.8694 13.9409 15.8694H13.2641V16.5418C13.2641 16.9132 12.9612 17.2142 12.5874 17.2142C12.2136 17.2142 11.9106 16.9132 11.9106 16.5418V15.8694H11.2339C10.8601 15.8694 10.5572 15.5683 10.5572 15.1969C10.5572 14.8256 10.8601 14.5245 11.2339 14.5245H11.9106V13.8521C11.9106 13.4807 12.2136 13.1796 12.5874 13.1796C12.9612 13.1796 13.2641 13.4807 13.2641 13.8521V14.5245H13.9409C14.3146 14.5245 14.6176 14.8256 14.6176 15.1969ZM14.6176 4.70702V11.1624C14.6176 11.5337 14.3146 11.8348 13.9409 11.8348C13.5671 11.8348 13.2641 11.5337 13.2641 11.1624V5.37945H11.9106V7.39674C11.9106 7.76812 11.6077 8.06917 11.2339 8.06917C10.8601 8.06917 10.5572 7.76812 10.5572 7.39674V5.37945H4.06045V7.39674C4.06045 7.76812 3.75747 8.06917 3.38371 8.06917C3.00994 8.06917 2.70697 7.76812 2.70697 7.39674V5.37945H1.35348V15.8694H8.52694C8.90071 15.8694 9.20368 16.1704 9.20368 16.5418C9.20368 16.9132 8.90071 17.2142 8.52694 17.2142H0.676741C0.302977 17.2142 0 16.9132 0 16.5418V4.70702C0 4.33563 0.302977 4.03459 0.676741 4.03459H2.73898C3.00781 1.7659 4.95453 0 7.30881 0C9.66309 0 11.6098 1.7659 11.8786 4.03459H13.9409C14.3146 4.03459 14.6176 4.33563 14.6176 4.70702ZM10.5118 4.03459C10.2533 2.51002 8.91549 1.34486 7.30881 1.34486C5.70212 1.34486 4.36434 2.51002 4.10582 4.03459H10.5118Z" fill="#2B384A"/>
</svg>
