<svg width="24" height="25" viewBox="0 0 24 25" fill="none" xmlns="http://www.w3.org/2000/svg">
<path d="M20.484 4.21754C15.797 -0.468035 8.19901 -0.46691 3.51344 4.22011C-1.17214 8.90714 -1.17101 16.5051 3.51602 21.1907C8.20304 25.8762 15.801 25.8751 20.4866 21.1881C22.7369 18.9371 24.0007 15.8844 24 12.7015C23.9993 9.51919 22.7346 6.46744 20.484 4.21754ZM18.1736 17.42L18.172 17.4215V17.4176L17.564 18.0215C16.7776 18.8178 15.6324 19.1454 14.544 18.8855C13.4473 18.592 12.4048 18.1248 11.456 17.5016C10.5744 16.9382 9.75751 16.2796 9.01998 15.5375C8.34137 14.8639 7.73172 14.1242 7.19997 13.3296C6.61834 12.4745 6.15798 11.543 5.83197 10.5615C5.45823 9.40861 5.76793 8.1435 6.63198 7.29356L7.34397 6.58158C7.54192 6.38274 7.86357 6.38203 8.06237 6.57999L10.3119 8.82956C10.5108 9.02751 10.5115 9.34917 10.3135 9.54797L8.99195 10.8696C8.6132 11.2442 8.56557 11.8395 8.87996 12.2696C9.35739 12.9248 9.88571 13.5413 10.46 14.1136C11.1002 14.7566 11.7963 15.3416 12.54 15.8616C12.9697 16.1613 13.5522 16.1108 13.9239 15.7416L15.1999 14.4456C15.3979 14.2468 15.7195 14.2461 15.9183 14.444L18.1719 16.7016C18.3708 16.8995 18.3715 17.2211 18.1736 17.42Z" fill="white"/>
</svg>
