<svg width="12" height="12" viewBox="0 0 12 12" fill="none" xmlns="http://www.w3.org/2000/svg">
<path fill-rule="evenodd" clip-rule="evenodd" d="M9.67126 4.95242L10.6237 3.99999C11.3601 3.26361 11.3601 2.0697 10.6237 1.33332C9.88731 0.596943 8.69341 0.59694 7.95703 1.33332L6.9887 2.30165C7.61824 3.4118 8.54567 4.33195 9.67126 4.95242ZM5.53384 3.75651L1.95806 7.33229C1.62572 7.66463 1.45955 7.8308 1.33712 8.02889C1.2147 8.22698 1.14038 8.44992 0.991756 8.89579L0.991753 8.8958L0.273253 11.0513C0.13527 11.4653 0.0662787 11.6722 0.175533 11.7815C0.284787 11.8907 0.491761 11.8217 0.905708 11.6838L3.06121 10.9653L3.06123 10.9653C3.5071 10.8166 3.73004 10.7423 3.92812 10.6199C4.12621 10.4975 4.29238 10.3313 4.62472 9.99895L8.2126 6.41108C7.13844 5.72543 6.22574 4.81881 5.53384 3.75651Z" fill="#2B384A"/>
</svg>
