<svg width="25" height="24" viewBox="0 0 25 24" fill="none" xmlns="http://www.w3.org/2000/svg">
<path d="M3.78968 18.2423C3.78968 18.2455 3.78968 18.2516 3.78593 18.2601C3.78734 18.2544 3.78828 18.2484 3.78968 18.2423Z" fill="#373737"/>
<path d="M21.5769 19.0124C21.4225 19.0091 21.2701 18.9773 21.1273 18.9187L18.4658 17.9751L18.4461 17.9671C18.388 17.9429 18.3257 17.9308 18.2628 17.9315C18.2049 17.9315 18.1474 17.942 18.0931 17.9624C18.0284 17.9868 17.4458 18.2057 16.8345 18.3735C16.5031 18.4644 15.3495 18.7612 14.4237 18.7612C12.0575 18.7612 9.845 17.8518 8.19453 16.2004C7.38823 15.399 6.7489 14.4457 6.31352 13.3956C5.87814 12.3455 5.65538 11.2195 5.65812 10.0827C5.6581 9.49041 5.72191 8.89981 5.84843 8.32116C6.26046 6.4171 7.35171 4.68507 8.92109 3.44616C10.5309 2.18337 12.5183 1.49796 14.5644 1.49991C17.0117 1.49991 19.2922 2.43741 20.9862 4.13335C22.5875 5.73976 23.465 7.85194 23.458 10.0804C23.4566 11.7363 22.9621 13.3542 22.0377 14.728L22.0287 14.7412L21.9941 14.788C21.9861 14.7988 21.9781 14.8091 21.9706 14.8199L21.9636 14.8326C21.945 14.8643 21.928 14.897 21.913 14.9305L22.6508 17.5527C22.6834 17.6609 22.7011 17.773 22.7033 17.886C22.7035 18.034 22.6745 18.1805 22.6179 18.3173C22.5614 18.454 22.4784 18.5783 22.3738 18.6829C22.2691 18.7875 22.1449 18.8705 22.0081 18.927C21.8714 18.9836 21.7248 19.0126 21.5769 19.0124Z" fill="#373737"/>
<path d="M15.013 19.9401C14.9645 19.8459 14.8964 19.7632 14.8132 19.6977C14.7299 19.6322 14.6336 19.5853 14.5306 19.5604C14.2597 19.4887 13.9437 19.5009 13.7023 19.483C11.423 19.3246 9.27801 18.3463 7.6639 16.7291C6.22894 15.3022 5.29636 13.4477 5.00656 11.4449C4.94093 10.9884 4.94093 10.8749 4.94093 10.8749C4.9409 10.7226 4.89449 10.5739 4.80787 10.4486C4.72125 10.3233 4.59853 10.2273 4.45603 10.1735C4.31354 10.1196 4.15802 10.1104 4.01018 10.1472C3.86235 10.1839 3.72919 10.2647 3.62843 10.379C3.62843 10.379 3.25906 10.7812 3.08468 11.1848C2.59563 12.3116 2.38707 13.5402 2.47687 14.7652C2.56667 15.9903 2.95216 17.1754 3.60031 18.2188C3.72218 18.4218 3.72218 18.5155 3.695 18.7265C3.56703 19.3879 3.34296 20.5546 3.22625 21.1598C3.1876 21.356 3.20198 21.559 3.26789 21.7479C3.3338 21.9367 3.44887 22.1046 3.60125 22.2341L3.62281 22.2524C3.82438 22.4125 4.07415 22.4997 4.33156 22.4999C4.47634 22.5 4.61972 22.4715 4.75343 22.416L7.26171 21.448C7.34808 21.4152 7.44348 21.4152 7.52984 21.448C8.5175 21.8155 9.54546 22.0105 10.5195 22.0105C11.7332 22.0117 12.9322 21.745 14.0309 21.2296C14.2869 21.1096 14.6872 20.9793 14.9216 20.7084C15.0103 20.6033 15.0662 20.4745 15.0824 20.3379C15.0987 20.2014 15.0745 20.063 15.013 19.9401Z" fill="#373737"/>
<path d="M12.034 10C12.034 10.5523 11.569 11 10.9955 11C10.422 11 9.95703 10.5523 9.95703 10C9.95703 9.44772 10.422 9 10.9955 9C11.569 9 12.034 9.44772 12.034 10Z" fill="white"/>
<path d="M15.4955 10C15.4955 10.5523 15.0306 11 14.457 11C13.8835 11 13.4186 10.5523 13.4186 10C13.4186 9.44772 13.8835 9 14.457 9C15.0306 9 15.4955 9.44772 15.4955 10Z" fill="white"/>
<path d="M18.957 10C18.957 10.5523 18.4921 11 17.9186 11C17.345 11 16.8801 10.5523 16.8801 10C16.8801 9.44772 17.345 9 17.9186 9C18.4921 9 18.957 9.44772 18.957 10Z" fill="white"/>
</svg>
