<svg width="28" height="17" viewBox="0 0 28 17" fill="none" xmlns="http://www.w3.org/2000/svg">
<path d="M17.2023 6.24589C17.0894 5.89665 16.7796 5.6486 16.4131 5.61558L11.4351 5.16357L9.46667 0.556228C9.32153 0.21857 8.99097 0 8.62371 0C8.25644 0 7.92589 0.21857 7.78075 0.557018L5.8123 5.16357L0.833485 5.61558C0.467666 5.64939 0.158695 5.89665 0.045133 6.24589C-0.0684287 6.59513 0.0364481 6.97818 0.313181 7.21965L4.07598 10.5196L2.96642 15.4073C2.88523 15.7666 3.02471 16.1381 3.32289 16.3537C3.48317 16.4695 3.67068 16.5284 3.85978 16.5284C4.02282 16.5284 4.18454 16.4845 4.32968 16.3976L8.62371 13.8312L12.9162 16.3976C13.2303 16.5866 13.6262 16.5693 13.9237 16.3537C14.222 16.1375 14.3614 15.7659 14.2802 15.4073L13.1706 10.5196L16.9334 7.22031C17.2102 6.97818 17.3158 6.59578 17.2023 6.24589Z" fill="white"/>
</svg>
