<svg width="17" height="18" viewBox="0 0 17 18" fill="none" xmlns="http://www.w3.org/2000/svg">
<path d="M4.56643 4.75373C4.56643 2.53156 6.3852 0.712793 8.60737 0.712793C10.8295 0.712793 12.6483 2.53156 12.6483 4.75373C12.6483 6.9759 10.8295 8.79467 8.60737 8.79467C6.3852 8.79467 4.56643 6.9759 4.56643 4.75373Z" stroke="white" stroke-width="1.2"/>
<path d="M15.9714 13.2233C15.8308 13.4654 15.671 13.6958 15.4884 13.9333L15.4883 13.9332L15.4809 13.9431C15.2239 14.2919 14.9246 14.6115 14.6075 14.9286C14.3427 15.1934 14.0399 15.4582 13.7399 15.6832C12.2442 16.8001 10.4454 17.3875 8.58708 17.3875C6.73249 17.3875 4.93727 16.8025 3.4434 15.69C3.11818 15.4258 2.82217 15.1841 2.56673 14.9287L2.5603 14.9222L2.55367 14.916C2.23628 14.6173 1.95619 14.3001 1.69326 13.9432L1.69328 13.9432L1.6902 13.9391C1.52947 13.7248 1.36343 13.4923 1.22725 13.2647C1.33076 13.0351 1.46122 12.7974 1.60221 12.5937L1.60232 12.5938L1.60926 12.5833C2.42578 11.3494 3.73222 10.5331 5.18302 10.3336L5.20109 10.3311L5.21898 10.3275C5.22321 10.3267 5.23923 10.325 5.26483 10.3314C5.29052 10.3378 5.3135 10.3494 5.32901 10.3611L5.329 10.3611L5.3327 10.3638C6.2897 11.0702 7.42855 11.4336 8.60733 11.4336C9.78612 11.4336 10.925 11.0702 11.882 10.3638L11.882 10.3638L11.8857 10.3611C11.8947 10.3543 11.951 10.328 12.0447 10.3354C13.4865 10.5375 14.7714 11.3505 15.6088 12.5884L15.6088 12.5884L15.6125 12.5937C15.7531 12.7969 15.8754 13.0067 15.9714 13.2233Z" stroke="white" stroke-width="1.2"/>
</svg>
