<svg width="24" height="25" viewBox="0 0 24 25" fill="none" xmlns="http://www.w3.org/2000/svg">
<rect y="0.704102" width="24" height="24" rx="12" fill="white"/>
<path d="M14.4063 12.7036C14.4063 14.0305 13.3269 15.1099 12 15.1099C10.6731 15.1099 9.59371 14.0305 9.59371 12.7036C9.59371 11.3768 10.6731 10.2973 12 10.2973C13.3269 10.2973 14.4063 11.3768 14.4063 12.7036ZM12 4.70361C7.58857 4.70361 4 8.29219 4 12.7036C4 17.115 7.58857 20.7036 12 20.7036C13.616 20.7036 15.1743 20.2225 16.5063 19.3122L16.5291 19.2962L15.4514 18.0436L15.4331 18.055C14.408 18.715 13.2206 19.0636 12 19.0636C8.49314 19.0636 5.64 16.2105 5.64 12.7036C5.64 9.19676 8.49314 6.34361 12 6.34361C15.5069 6.34361 18.36 9.19676 18.36 12.7036C18.36 13.1579 18.3091 13.6179 18.2103 14.0705C18.0091 14.8962 17.4309 15.1488 16.9971 15.1156C16.5606 15.0802 16.0497 14.7693 16.0463 14.0082V13.4282V12.7036C16.0463 10.4722 14.2314 8.65733 12 8.65733C9.76857 8.65733 7.95372 10.4722 7.95372 12.7036C7.95372 14.935 9.76857 16.7499 12 16.7499C13.084 16.7499 14.1006 16.3265 14.8669 15.5556C15.3126 16.2493 16.0389 16.6842 16.8657 16.7505C16.9366 16.7562 17.0091 16.759 17.0806 16.759C17.6629 16.759 18.2394 16.5642 18.7046 16.2116C19.184 15.847 19.5423 15.3208 19.74 14.6882C19.7714 14.5859 19.8297 14.3522 19.8297 14.3505L19.8314 14.3419C19.948 13.8345 20 13.3288 20 12.7036C20 8.29219 16.4114 4.70361 12 4.70361Z" fill="#2B384A"/>
</svg>
