<svg width="21" height="22" viewBox="0 0 21 22" fill="none" xmlns="http://www.w3.org/2000/svg">
<path fill-rule="evenodd" clip-rule="evenodd" d="M11.4688 20.8763C13.3754 19.9089 19.957 16.1127 19.957 9.80374C19.957 4.94157 15.9276 1 10.957 1C5.98647 1 1.95703 4.94157 1.95703 9.80374C1.95703 16.1127 8.53864 19.9089 10.4453 20.8763C10.7704 21.0412 11.1437 21.0412 11.4688 20.8763ZM10.957 13.5768C13.0873 13.5768 14.8142 11.8875 14.8142 9.80374C14.8142 7.71995 13.0873 6.03071 10.957 6.03071C8.82679 6.03071 7.09989 7.71995 7.09989 9.80374C7.09989 11.8875 8.82679 13.5768 10.957 13.5768Z" stroke="#A3A0B2" stroke-width="2"/>
</svg>
