<svg width="131" height="18" viewBox="0 0 131 18" fill="none" xmlns="http://www.w3.org/2000/svg">
<path d="M130.541 6.81217C130.428 6.46293 130.119 6.21489 129.752 6.18186L124.774 5.72985L122.806 1.12251C122.661 0.784854 122.33 0.566284 121.963 0.566284C121.596 0.566284 121.265 0.784854 121.12 1.1233L119.151 5.72985L114.173 6.18186C113.807 6.21568 113.498 6.46293 113.384 6.81217C113.271 7.16141 113.376 7.54447 113.652 7.78593L117.415 11.0859L116.306 15.9736C116.224 16.3329 116.364 16.7044 116.662 16.9199C116.822 17.0357 117.01 17.0947 117.199 17.0947C117.362 17.0947 117.524 17.0507 117.669 16.9639L121.963 14.3975L126.255 16.9639C126.569 17.1529 126.965 17.1356 127.263 16.9199C127.561 16.7037 127.701 16.3321 127.619 15.9736L126.51 11.0859L130.273 7.78659C130.549 7.54447 130.655 7.16207 130.541 6.81217Z" fill="#FFC226"/>
<path d="M102.206 6.81205C102.094 6.46281 101.784 6.21477 101.417 6.18174L96.4393 5.72973L94.4709 1.12239C94.3257 0.784732 93.9952 0.566162 93.6279 0.566162C93.2607 0.566162 92.9301 0.784732 92.785 1.12318L90.8165 5.72973L85.8377 6.18174C85.4719 6.21556 85.1629 6.46281 85.0493 6.81205C84.9358 7.16129 85.0407 7.54435 85.3174 7.78581L89.0802 11.0858L87.9706 15.9734C87.8894 16.3328 88.0289 16.7043 88.3271 16.9198C88.4874 17.0356 88.6749 17.0946 88.864 17.0946C89.027 17.0946 89.1888 17.0506 89.3339 16.9638L93.6279 14.3974L97.9204 16.9638C98.2345 17.1527 98.6304 17.1355 98.9279 16.9198C99.2263 16.7036 99.3656 16.332 99.2844 15.9734L98.1749 11.0858L101.938 7.78647C102.214 7.54435 102.32 7.16195 102.206 6.81205Z" fill="#FFC226"/>
<path d="M73.8718 6.81205C73.7589 6.46281 73.4491 6.21477 73.0826 6.18174L68.1046 5.72973L66.1362 1.12239C65.991 0.784732 65.6605 0.566162 65.2932 0.566162C64.9259 0.566162 64.5954 0.784732 64.4502 1.12318L62.4818 5.72973L57.503 6.18174C57.1372 6.21556 56.8282 6.46281 56.7146 6.81205C56.6011 7.16129 56.7059 7.54435 56.9827 7.78581L60.7455 11.0858L59.6359 15.9734C59.5547 16.3328 59.6942 16.7043 59.9924 16.9198C60.1527 17.0356 60.3402 17.0946 60.5293 17.0946C60.6923 17.0946 60.854 17.0506 60.9992 16.9638L65.2932 14.3974L69.5856 16.9638C69.8998 17.1527 70.2957 17.1355 70.5932 16.9198C70.8915 16.7036 71.0309 16.332 70.9497 15.9734L69.8401 11.0858L73.6029 7.78647C73.8797 7.54435 73.9853 7.16195 73.8718 6.81205Z" fill="#FFC226"/>
<path d="M45.5371 6.81205C45.4242 6.46281 45.1145 6.21477 44.748 6.18174L39.77 5.72973L37.8015 1.12239C37.6564 0.784732 37.3258 0.566162 36.9585 0.566162C36.5913 0.566162 36.2607 0.784732 36.1156 1.12318L34.1471 5.72973L29.1683 6.18174C28.8025 6.21556 28.4935 6.46281 28.38 6.81205C28.2664 7.16129 28.3713 7.54435 28.648 7.78581L32.4108 11.0858L31.3013 15.9734C31.2201 16.3328 31.3596 16.7043 31.6577 16.9198C31.818 17.0356 32.0055 17.0946 32.1946 17.0946C32.3577 17.0946 32.5194 17.0506 32.6645 16.9638L36.9585 14.3974L41.251 16.9638C41.5651 17.1527 41.961 17.1355 42.2586 16.9198C42.5569 16.7036 42.6962 16.332 42.615 15.9734L41.5055 11.0858L45.2683 7.78647C45.545 7.54435 45.6507 7.16195 45.5371 6.81205Z" fill="#FFC226"/>
<path d="M17.2023 6.81205C17.0894 6.46281 16.7796 6.21477 16.4131 6.18174L11.4351 5.72973L9.46667 1.12239C9.32153 0.784732 8.99097 0.566162 8.62371 0.566162C8.25644 0.566162 7.92589 0.784732 7.78075 1.12318L5.8123 5.72973L0.833485 6.18174C0.467666 6.21556 0.158695 6.46281 0.045133 6.81205C-0.0684287 7.16129 0.0364481 7.54435 0.313181 7.78581L4.07598 11.0858L2.96642 15.9734C2.88523 16.3328 3.02471 16.7043 3.32289 16.9198C3.48317 17.0356 3.67068 17.0946 3.85978 17.0946C4.02282 17.0946 4.18454 17.0506 4.32968 16.9638L8.62371 14.3974L12.9162 16.9638C13.2303 17.1527 13.6262 17.1355 13.9237 16.9198C14.222 16.7036 14.3614 16.332 14.2802 15.9734L13.1706 11.0858L16.9334 7.78647C17.2102 7.54435 17.3158 7.16195 17.2023 6.81205Z" fill="#FFC226"/>
</svg>
