<svg width="17" height="17" viewBox="0 0 17 17" fill="none" xmlns="http://www.w3.org/2000/svg">
<path d="M11.4566 9.71985L9.22574 8.04673V4.63854C9.22574 4.29585 8.94874 4.01885 8.60605 4.01885C8.26336 4.01885 7.98636 4.29585 7.98636 4.63854V8.3566C7.98636 8.55179 8.07808 8.73585 8.23424 8.85235L10.7129 10.7114C10.8245 10.795 10.9546 10.8353 11.0841 10.8353C11.2731 10.8353 11.459 10.7504 11.5805 10.5868C11.7863 10.3135 11.7305 9.92498 11.4566 9.71985Z" fill="white"/>
<path d="M8.60608 0.307007C4.19461 0.307007 0.606079 3.89554 0.606079 8.30701C0.606079 12.7185 4.19461 16.307 8.60608 16.307C13.0175 16.307 16.6061 12.7185 16.6061 8.30701C16.6061 3.89554 13.0175 0.307007 8.60608 0.307007ZM8.60608 15.0677C4.87874 15.0677 1.84542 12.0344 1.84542 8.30701C1.84542 4.57966 4.87874 1.54635 8.60608 1.54635C12.334 1.54635 15.3667 4.57966 15.3667 8.30701C15.3667 12.0344 12.3334 15.0677 8.60608 15.0677Z" fill="white"/>
</svg>
