<svg width="131" height="18" viewBox="0 0 131 18" fill="none" xmlns="http://www.w3.org/2000/svg">
<path d="M130.541 6.7949C130.428 6.44566 130.119 6.19762 129.752 6.16459L124.774 5.71258L122.806 1.10524C122.661 0.767581 122.33 0.549011 121.963 0.549011C121.596 0.549011 121.265 0.767581 121.12 1.10603L119.151 5.71258L114.173 6.16459C113.807 6.19841 113.498 6.44566 113.384 6.7949C113.271 7.14414 113.376 7.52719 113.652 7.76866L117.415 11.0687L116.306 15.9563C116.224 16.3157 116.364 16.6871 116.662 16.9027C116.822 17.0185 117.01 17.0774 117.199 17.0774C117.362 17.0774 117.524 17.0335 117.669 16.9466L121.963 14.3802L126.255 16.9466C126.569 17.1356 126.965 17.1183 127.263 16.9027C127.561 16.6865 127.701 16.3149 127.619 15.9563L126.51 11.0687L130.273 7.76932C130.549 7.5272 130.655 7.1448 130.541 6.7949Z" fill="white"/>
<path d="M102.206 6.7949C102.094 6.44566 101.784 6.19762 101.417 6.16459L96.4393 5.71258L94.4709 1.10524C94.3257 0.767581 93.9952 0.549011 93.6279 0.549011C93.2607 0.549011 92.9301 0.767581 92.785 1.10603L90.8165 5.71258L85.8377 6.16459C85.4719 6.19841 85.1629 6.44566 85.0493 6.7949C84.9358 7.14414 85.0407 7.52719 85.3174 7.76866L89.0802 11.0687L87.9706 15.9563C87.8894 16.3157 88.0289 16.6871 88.3271 16.9027C88.4874 17.0185 88.6749 17.0774 88.864 17.0774C89.027 17.0774 89.1888 17.0335 89.3339 16.9466L93.6279 14.3802L97.9204 16.9466C98.2345 17.1356 98.6304 17.1183 98.9279 16.9027C99.2263 16.6865 99.3656 16.3149 99.2844 15.9563L98.1749 11.0687L101.938 7.76932C102.214 7.5272 102.32 7.1448 102.206 6.7949Z" fill="white"/>
<path d="M73.8718 6.7949C73.7589 6.44566 73.4491 6.19762 73.0826 6.16459L68.1046 5.71258L66.1362 1.10524C65.991 0.767581 65.6605 0.549011 65.2932 0.549011C64.9259 0.549011 64.5954 0.767581 64.4502 1.10603L62.4818 5.71258L57.503 6.16459C57.1372 6.19841 56.8282 6.44566 56.7146 6.7949C56.6011 7.14414 56.7059 7.52719 56.9827 7.76866L60.7455 11.0687L59.6359 15.9563C59.5547 16.3157 59.6942 16.6871 59.9924 16.9027C60.1527 17.0185 60.3402 17.0774 60.5293 17.0774C60.6923 17.0774 60.854 17.0335 60.9992 16.9466L65.2932 14.3802L69.5856 16.9466C69.8998 17.1356 70.2957 17.1183 70.5932 16.9027C70.8915 16.6865 71.0309 16.3149 70.9497 15.9563L69.8401 11.0687L73.6029 7.76932C73.8797 7.5272 73.9853 7.1448 73.8718 6.7949Z" fill="white"/>
<path d="M45.5371 6.7949C45.4242 6.44566 45.1145 6.19762 44.748 6.16459L39.77 5.71258L37.8015 1.10524C37.6564 0.767581 37.3258 0.549011 36.9585 0.549011C36.5913 0.549011 36.2607 0.767581 36.1156 1.10603L34.1471 5.71258L29.1683 6.16459C28.8025 6.19841 28.4935 6.44566 28.38 6.7949C28.2664 7.14414 28.3713 7.52719 28.648 7.76866L32.4108 11.0687L31.3013 15.9563C31.2201 16.3157 31.3596 16.6871 31.6577 16.9027C31.818 17.0185 32.0055 17.0774 32.1946 17.0774C32.3577 17.0774 32.5194 17.0335 32.6645 16.9466L36.9585 14.3802L41.251 16.9466C41.5651 17.1356 41.961 17.1183 42.2586 16.9027C42.5569 16.6865 42.6962 16.3149 42.615 15.9563L41.5055 11.0687L45.2683 7.76932C45.545 7.5272 45.6507 7.1448 45.5371 6.7949Z" fill="white"/>
<path d="M17.2023 6.79649C17.0894 6.44725 16.7796 6.1992 16.4131 6.16617L11.4351 5.71416L9.46667 1.10683C9.32153 0.769168 8.99097 0.550598 8.62371 0.550598C8.25644 0.550598 7.92589 0.769168 7.78075 1.10762L5.8123 5.71416L0.833485 6.16617C0.467666 6.19999 0.158695 6.44725 0.045133 6.79649C-0.0684287 7.14572 0.0364481 7.52878 0.313181 7.77025L4.07598 11.0702L2.96642 15.9579C2.88523 16.3172 3.02471 16.6887 3.32289 16.9043C3.48317 17.0201 3.67068 17.079 3.85978 17.079C4.02282 17.079 4.18454 17.0351 4.32968 16.9482L8.62371 14.3818L12.9162 16.9482C13.2303 17.1372 13.6262 17.1199 13.9237 16.9043C14.222 16.6881 14.3614 16.3165 14.2802 15.9579L13.1706 11.0702L16.9334 7.77091C17.2102 7.52878 17.3158 7.14638 17.2023 6.79649Z" fill="white"/>
</svg>
