<svg width="22" height="21" viewBox="0 0 22 21" fill="none" xmlns="http://www.w3.org/2000/svg">
<path fill-rule="evenodd" clip-rule="evenodd" d="M13.7065 0.585793C12.8644 0.208681 11.9329 0 10.957 0C7.52569 0 4.64308 2.58006 4.26416 5.99041L3.96062 8.72222L3.96062 8.72224C3.91734 9.11177 3.8957 9.30654 3.86496 9.49806C3.724 10.3763 3.43755 11.2249 3.0174 12.009C2.92579 12.1799 2.82496 12.348 2.62331 12.6841L1.92534 13.8474C1.11958 15.1903 0.716704 15.8617 1.00393 16.369C1.29116 16.8764 2.07421 16.8764 3.64032 16.8764H18.2737C19.8398 16.8764 20.6229 16.8764 20.9101 16.369C21.1973 15.8617 20.7945 15.1903 19.9887 13.8474L19.2907 12.6841C19.0891 12.348 18.9883 12.1799 18.8966 12.009C18.4765 11.2249 18.1901 10.3763 18.0491 9.49806C18.0275 9.36359 18.0104 9.22751 17.9872 9.02355C15.0927 8.91701 12.7788 6.5369 12.7788 3.61636C12.7788 2.49344 13.1209 1.45041 13.7065 0.585793ZM16.1092 2.39744C15.8992 2.75508 15.7788 3.17166 15.7788 3.61636C15.7788 4.76129 16.5769 5.71981 17.6471 5.96596C17.4911 4.60645 16.9371 3.37987 16.1092 2.39744Z" fill="#2B384A"/>
<path d="M7.34064 16.8764C7.34064 17.3513 7.43418 17.8215 7.61592 18.2603C7.79766 18.699 8.06404 19.0977 8.39985 19.4335C8.73566 19.7693 9.13433 20.0357 9.57308 20.2174C10.0118 20.3992 10.4821 20.4927 10.957 20.4927C11.4319 20.4927 11.9022 20.3992 12.3409 20.2174C12.7797 20.0357 13.1783 19.7693 13.5142 19.4335C13.85 19.0977 14.1163 18.699 14.2981 18.2603C14.4798 17.8215 14.5734 17.3513 14.5734 16.8764L10.957 16.8764H7.34064Z" fill="#2B384A"/>
<circle cx="18.1897" cy="3.61636" r="2.91091" fill="#F40B0B" stroke="#F40B0B"/>
</svg>
