<svg width="8" height="7" viewBox="0 0 8 7" fill="none" xmlns="http://www.w3.org/2000/svg">
<path d="M2.97994 6.58097C3.17521 6.77623 3.49179 6.77623 3.68705 6.58097C3.88231 6.38571 3.88231 6.06913 3.68705 5.87386L2.97994 6.58097ZM0.666831 3.56075L0.313278 3.2072C0.118016 3.40246 0.118016 3.71904 0.313278 3.9143L0.666831 3.56075ZM3.68705 1.24764C3.88231 1.05238 3.88231 0.735793 3.68705 0.540531C3.49179 0.345269 3.17521 0.345269 2.97994 0.540531L3.68705 1.24764ZM7.3335 4.06075C7.60964 4.06075 7.8335 3.83689 7.8335 3.56075C7.8335 3.28461 7.60964 3.06075 7.3335 3.06075L7.3335 4.06075ZM3.68705 5.87386L1.02038 3.2072L0.313278 3.9143L2.97994 6.58097L3.68705 5.87386ZM1.02038 3.9143L3.68705 1.24764L2.97994 0.540531L0.313278 3.2072L1.02038 3.9143ZM7.3335 3.06075L0.666831 3.06075L0.666831 4.06075L7.3335 4.06075L7.3335 3.06075Z" fill="#434343"/>
</svg>
