<svg width="16" height="15" viewBox="0 0 16 15" fill="none" xmlns="http://www.w3.org/2000/svg">
<path fill-rule="evenodd" clip-rule="evenodd" d="M7.63461 14.0284C7.79803 14.1715 8.00772 14.2503 8.22521 14.2503C8.4426 14.2503 8.6524 14.1715 8.8157 14.0286C9.43428 13.4877 10.0302 12.9797 10.5562 12.5316L10.5564 12.5314C12.0952 11.22 13.4241 10.0874 14.3489 8.97156C15.3826 7.72426 15.864 6.54153 15.864 5.24947C15.864 3.99413 15.4337 2.83599 14.6522 1.98826C13.8613 1.1305 12.776 0.658081 11.5962 0.658081C10.7143 0.658081 9.9067 0.936891 9.1958 1.4867C8.83692 1.76423 8.51183 2.10388 8.22521 2.50007C7.93871 2.10388 7.61351 1.76423 7.25474 1.4867C6.54385 0.936891 5.73621 0.658081 4.85432 0.658081C3.6744 0.658081 2.58923 1.1305 1.79838 1.98826C1.01685 2.83599 0.586395 3.99413 0.586395 5.24947C0.586395 6.54153 1.0679 7.72426 2.10166 8.97168C3.02644 10.0875 4.35557 11.2202 5.89473 12.5319L5.89741 12.5342C6.42239 12.9816 7.01743 13.4887 7.63461 14.0284Z" fill="white"/>
</svg>
