<svg width="17" height="16" viewBox="0 0 17 16" fill="none" xmlns="http://www.w3.org/2000/svg">
<path d="M7.60092 8C7.60092 7.66013 7.87644 7.38462 8.21631 7.38462C8.55618 7.38462 8.83169 7.66013 8.83169 8C8.83169 8.33987 8.55618 8.61539 8.21631 8.61539C7.87644 8.61539 7.60092 8.33987 7.60092 8Z" fill="#2B384A"/>
<path d="M10.6778 7.38462C10.338 7.38462 10.0625 7.66013 10.0625 8C10.0625 8.33987 10.338 8.61539 10.6778 8.61539C11.0177 8.61539 11.2932 8.33987 11.2932 8C11.2932 7.66013 11.0177 7.38462 10.6778 7.38462Z" fill="#2B384A"/>
<path d="M12.524 8C12.524 7.66013 12.7995 7.38462 13.1394 7.38462C13.4793 7.38462 13.7548 7.66013 13.7548 8C13.7548 8.33987 13.4793 8.61539 13.1394 8.61539C12.7995 8.61539 12.524 8.33987 12.524 8Z" fill="#2B384A"/>
<path d="M13.1394 9.84615C12.7995 9.84615 12.524 10.1217 12.524 10.4615C12.524 10.8014 12.7995 11.0769 13.1394 11.0769C13.4793 11.0769 13.7548 10.8014 13.7548 10.4615C13.7548 10.1217 13.4793 9.84615 13.1394 9.84615Z" fill="#2B384A"/>
<path d="M10.0625 10.4615C10.0625 10.1217 10.338 9.84615 10.6778 9.84615C11.0177 9.84615 11.2932 10.1217 11.2932 10.4615C11.2932 10.8014 11.0177 11.0769 10.6778 11.0769C10.338 11.0769 10.0625 10.8014 10.0625 10.4615Z" fill="#2B384A"/>
<path d="M8.21631 9.84615C7.87644 9.84615 7.60092 10.1217 7.60092 10.4615C7.60092 10.8014 7.87644 11.0769 8.21631 11.0769C8.55618 11.0769 8.83169 10.8014 8.83169 10.4615C8.83169 10.1217 8.55618 9.84615 8.21631 9.84615Z" fill="#2B384A"/>
<path d="M5.13939 10.4615C5.13939 10.1217 5.4149 9.84615 5.75477 9.84615C6.09464 9.84615 6.37015 10.1217 6.37015 10.4615C6.37015 10.8014 6.09464 11.0769 5.75477 11.0769C5.4149 11.0769 5.13939 10.8014 5.13939 10.4615Z" fill="#2B384A"/>
<path d="M3.29323 9.84615C2.95336 9.84615 2.67785 10.1217 2.67785 10.4615C2.67785 10.8014 2.95336 11.0769 3.29323 11.0769C3.6331 11.0769 3.90862 10.8014 3.90862 10.4615C3.90862 10.1217 3.6331 9.84615 3.29323 9.84615Z" fill="#2B384A"/>
<path d="M2.67785 12.9231C2.67785 12.5832 2.95336 12.3077 3.29323 12.3077C3.6331 12.3077 3.90862 12.5832 3.90862 12.9231C3.90862 13.2629 3.6331 13.5385 3.29323 13.5385C2.95336 13.5385 2.67785 13.2629 2.67785 12.9231Z" fill="#2B384A"/>
<path d="M5.75477 12.3077C5.4149 12.3077 5.13939 12.5832 5.13939 12.9231C5.13939 13.2629 5.4149 13.5385 5.75477 13.5385C6.09464 13.5385 6.37015 13.2629 6.37015 12.9231C6.37015 12.5832 6.09464 12.3077 5.75477 12.3077Z" fill="#2B384A"/>
<path d="M7.60092 12.9231C7.60092 12.5832 7.87644 12.3077 8.21631 12.3077C8.55618 12.3077 8.83169 12.5832 8.83169 12.9231C8.83169 13.2629 8.55618 13.5385 8.21631 13.5385C7.87644 13.5385 7.60092 13.2629 7.60092 12.9231Z" fill="#2B384A"/>
<path d="M10.6778 12.3077C10.338 12.3077 10.0625 12.5832 10.0625 12.9231C10.0625 13.2629 10.338 13.5385 10.6778 13.5385C11.0177 13.5385 11.2932 13.2629 11.2932 12.9231C11.2932 12.5832 11.0177 12.3077 10.6778 12.3077Z" fill="#2B384A"/>
<path fill-rule="evenodd" clip-rule="evenodd" d="M4.524 0C4.86387 0 5.13939 0.275517 5.13939 0.615385V1.23077H11.2932V0.615385C11.2932 0.275517 11.5687 0 11.9086 0C12.2485 0 12.524 0.275517 12.524 0.615385V1.23077H14.3702C15.3898 1.23077 16.2163 2.05732 16.2163 3.07692V14.1538C16.2163 15.1734 15.3898 16 14.3702 16H2.06246C1.04286 16 0.216309 15.1734 0.216309 14.1538V3.07692C0.216309 2.05732 1.04286 1.23077 2.06246 1.23077H3.90862V0.615385C3.90862 0.275517 4.18413 0 4.524 0ZM11.2932 2.46154V3.07692C11.2932 3.41679 11.5687 3.69231 11.9086 3.69231C12.2485 3.69231 12.524 3.41679 12.524 3.07692V2.46154H14.3702C14.71 2.46154 14.9855 2.73706 14.9855 3.07692V4.92308H1.44708V3.07692C1.44708 2.73706 1.72259 2.46154 2.06246 2.46154H3.90862V3.07692C3.90862 3.41679 4.18413 3.69231 4.524 3.69231C4.86387 3.69231 5.13939 3.41679 5.13939 3.07692V2.46154H11.2932ZM1.44708 6.15385V14.1538C1.44708 14.4937 1.7226 14.7692 2.06246 14.7692H14.3702C14.71 14.7692 14.9855 14.4937 14.9855 14.1538V6.15385H1.44708Z" fill="#2B384A"/>
</svg>
