<svg width="18" height="18" viewBox="0 0 18 18" fill="none" xmlns="http://www.w3.org/2000/svg">
<path fill-rule="evenodd" clip-rule="evenodd" d="M11.45 12.8473C10.2728 13.789 8.77961 14.352 7.15488 14.352C3.3545 14.352 0.273682 11.2712 0.273682 7.47085C0.273682 3.67048 3.3545 0.589661 7.15488 0.589661C10.9553 0.589661 14.0361 3.67048 14.0361 7.47085C14.0361 9.09559 13.473 10.5888 12.5313 11.766L16.8704 16.1051C17.169 16.4037 17.169 16.8878 16.8704 17.1864C16.5719 17.485 16.0878 17.485 15.7892 17.1864L11.45 12.8473ZM12.5069 7.47085C12.5069 10.4267 10.1107 12.8229 7.15488 12.8229C4.19903 12.8229 1.80284 10.4267 1.80284 7.47085C1.80284 4.51501 4.19903 2.11881 7.15488 2.11881C10.1107 2.11881 12.5069 4.51501 12.5069 7.47085Z" fill="#2B384A"/>
</svg>
