<svg width="18" height="20" viewBox="0 0 18 20" fill="none" xmlns="http://www.w3.org/2000/svg">
<path d="M8.82295 0.25C6.00719 0.25 3.70544 2.55174 3.70544 5.3675C3.70544 8.18326 6.00719 10.485 8.82295 10.485C11.6387 10.485 13.9404 8.18326 13.9404 5.3675C13.9404 2.55174 11.6387 0.25 8.82295 0.25Z" fill="#2B384A"/>
<path d="M17.6053 14.5746C17.4712 14.2393 17.2924 13.9265 17.0913 13.636C16.0633 12.1163 14.4767 11.1107 12.6889 10.8649C12.4655 10.8426 12.2197 10.8872 12.0409 11.0213C11.1023 11.7141 9.98496 12.0716 8.82288 12.0716C7.6608 12.0716 6.54346 11.7141 5.60488 11.0213C5.42608 10.8872 5.18026 10.8202 4.95681 10.8649C3.16904 11.1107 1.56006 12.1163 0.554446 13.636C0.353323 13.9265 0.174529 14.2617 0.0404758 14.5746C-0.0265508 14.7087 -0.00422286 14.8651 0.0628037 14.9992C0.241598 15.312 0.465049 15.6249 0.666171 15.8931C0.979019 16.3177 1.31424 16.6975 1.69415 17.0551C2.007 17.3679 2.36455 17.6585 2.72214 17.949C4.48754 19.2675 6.61053 19.9602 8.80055 19.9602C10.9906 19.9602 13.1136 19.2674 14.879 17.949C15.2365 17.6808 15.5941 17.3679 15.9069 17.0551C16.2645 16.6975 16.622 16.3176 16.9349 15.8931C17.1584 15.6025 17.3596 15.312 17.5383 14.9992C17.65 14.8651 17.6723 14.7086 17.6053 14.5746Z" fill="#2B384A"/>
</svg>
