<svg width="20" height="16" viewBox="0 0 20 16" fill="none" xmlns="http://www.w3.org/2000/svg">
<path d="M15.8596 5.75839C15.7555 5.43641 15.4699 5.20772 15.1321 5.17727L10.5426 4.76054L8.72778 0.512814C8.59397 0.20151 8.28921 0 7.95061 0C7.61201 0 7.30726 0.20151 7.17345 0.513542L5.35864 4.76054L0.76843 5.17727C0.431164 5.20845 0.146308 5.43641 0.0416103 5.75839C-0.0630877 6.08037 0.0336032 6.43353 0.288736 6.65614L3.75784 9.69857L2.73488 14.2047C2.66003 14.536 2.78863 14.8785 3.06354 15.0772C3.2113 15.184 3.38418 15.2383 3.55852 15.2383C3.70883 15.2383 3.85793 15.1978 3.99174 15.1178L7.95061 12.7517L11.908 15.1178C12.1976 15.292 12.5627 15.2761 12.837 15.0772C13.112 14.8779 13.2405 14.5353 13.1656 14.2047L12.1427 9.69857L15.6118 6.65675C15.8669 6.43353 15.9643 6.08097 15.8596 5.75839Z" fill="#FFC226"/>
</svg>
