<svg width="64" height="65" viewBox="0 0 64 65" fill="none" xmlns="http://www.w3.org/2000/svg">
<g opacity="0.4">
<path d="M39.7698 3.72921C37.2839 2.61601 34.5342 2 31.6536 2C21.5245 2 13.0153 9.61613 11.8968 19.6832L11.0008 27.7473C10.873 28.8972 10.8091 29.4721 10.7184 30.0375C10.3023 32.6301 9.4567 35.1351 8.21646 37.4495C7.94601 37.9542 7.64838 38.4502 7.05312 39.4423L4.99277 42.8763C2.61424 46.8405 1.42498 48.8226 2.27286 50.3201C3.12073 51.8176 5.43224 51.8176 10.0553 51.8176H53.2519C57.8749 51.8176 60.1864 51.8176 61.0343 50.3201C61.8821 48.8226 60.6929 46.8405 58.3144 42.8763L56.254 39.4423C55.6587 38.4502 55.3611 37.9542 55.0906 37.4495C53.8504 35.1351 53.0048 32.6301 52.5887 30.0375C52.525 29.6405 52.4746 29.2389 52.4059 28.6368C43.8616 28.3223 37.0314 21.2964 37.0314 12.6752C37.0314 9.36043 38.0411 6.2815 39.7698 3.72921Z" stroke="#2B384A" stroke-width="4"/>
<path d="M46.8624 9.07704C46.2425 10.1328 45.8871 11.3625 45.8871 12.6752C45.8871 16.0549 48.243 18.8844 51.4022 19.611C50.9417 15.5979 49.3061 11.9771 46.8624 9.07704Z" stroke="#2B384A" stroke-width="4"/>
<circle cx="52.6538" cy="13" r="11" fill="white"/>
<path d="M20.9792 51.8175C20.9792 53.2194 21.2553 54.6076 21.7918 55.9028C22.3283 57.1979 23.1146 58.3748 24.1059 59.366C25.0972 60.3573 26.274 61.1436 27.5692 61.6801C28.8643 62.2166 30.2525 62.4927 31.6544 62.4927C33.0563 62.4927 34.4444 62.2166 35.7396 61.6801C37.0348 61.1436 38.2116 60.3573 39.2029 59.366C40.1942 58.3748 40.9805 57.1979 41.517 55.9028C42.0535 54.6076 42.3296 53.2194 42.3296 51.8175L31.6544 51.8175H20.9792Z" stroke="#2B384A" stroke-width="4" stroke-linecap="round"/>
<circle cx="53.0035" cy="12.6751" r="7.6168" fill="#F40B0B" stroke="#F40B0B"/>
</g>
</svg>
