<svg width="22" height="20" viewBox="0 0 22 20" fill="none" xmlns="http://www.w3.org/2000/svg">
<path fill-rule="evenodd" clip-rule="evenodd" d="M10.1905 18.8856C10.4145 19.0819 10.702 19.1899 11.0002 19.1899C11.2982 19.1899 11.5858 19.0819 11.8097 18.886C12.6578 18.1443 13.4748 17.448 14.1958 16.8337L14.1961 16.8334C16.3058 15.0355 18.1277 13.4828 19.3954 11.953C20.8127 10.243 21.4726 8.62154 21.4726 6.85018C21.4726 5.12917 20.8827 3.54142 19.8112 2.37921C18.727 1.20326 17.2391 0.555603 15.6217 0.555603C14.4126 0.555603 13.3054 0.937838 12.3308 1.6916C11.8388 2.07208 11.3931 2.53773 11.0002 3.08088C10.6074 2.53773 10.1616 2.07208 9.6697 1.6916C8.6951 0.937838 7.58787 0.555603 6.37884 0.555603C4.76122 0.555603 3.2735 1.20326 2.18928 2.37921C1.11784 3.54142 0.52771 5.12917 0.52771 6.85018C0.52771 8.62154 1.18783 10.243 2.60507 11.9532C3.8729 13.4829 5.69507 15.0358 7.80519 16.834L7.80887 16.8372C8.52859 17.4505 9.34436 18.1458 10.1905 18.8856Z" fill="#2B384A"/>
</svg>
