<svg width="112" height="30" viewBox="0 0 112 30" fill="none" xmlns="http://www.w3.org/2000/svg">
<path d="M0 28.7693H20.2379V23.482H6.39091V0.730662H0V28.7693Z" fill="#2B384A"/>
<path d="M35.5365 29.25C44.2155 29.25 50.6459 23.1215 50.6459 14.75C50.6459 6.37845 44.2155 0.25 35.5365 0.25C26.818 0.25 20.4271 6.41851 20.4271 14.75C20.4271 23.0815 26.818 29.25 35.5365 29.25ZM35.5365 23.7224C30.6052 23.7224 26.8969 20.0773 26.8969 14.75C26.8969 9.42265 30.6052 5.77762 35.5365 5.77762C40.4678 5.77762 44.1761 9.42265 44.1761 14.75C44.1761 20.0773 40.4678 23.7224 35.5365 23.7224Z" fill="#2B384A"/>
<path d="M72.9253 22.5207C71.3079 23.4019 69.6904 23.7224 67.9546 23.7224C62.6683 23.7224 58.9994 19.9972 58.9994 14.75C58.9994 9.42265 62.6683 5.77762 68.0335 5.77762C70.8345 5.77762 73.162 6.77901 75.174 8.94199L79.2768 5.09668C76.5942 1.93232 72.5703 0.25 67.7179 0.25C58.9205 0.25 52.5296 6.29834 52.5296 14.75C52.5296 23.2017 58.9205 29.25 67.5996 29.25C71.5446 29.25 75.7263 28.0083 78.7639 25.6851V14.3094H72.9253V22.5207Z" fill="#2B384A"/>
<path d="M96.8906 29.25C105.57 29.25 112 23.1215 112 14.75C112 6.37845 105.57 0.25 96.8906 0.25C88.1721 0.25 81.7812 6.41851 81.7812 14.75C81.7812 23.0815 88.1721 29.25 96.8906 29.25ZM96.8906 23.7224C91.9594 23.7224 88.2511 20.0773 88.2511 14.75C88.2511 9.42265 91.9594 5.77762 96.8906 5.77762C101.822 5.77762 105.53 9.42265 105.53 14.75C105.53 20.0773 101.822 23.7224 96.8906 23.7224Z" fill="#2B384A"/>
</svg>
