<svg width="113" height="30" viewBox="0 0 113 30" fill="none" xmlns="http://www.w3.org/2000/svg">
<path d="M0.968262 29.2283H21.2062V23.941H7.35917V1.18965H0.968262V29.2283Z" fill="white"/>
<path d="M36.5048 29.709C45.1838 29.709 51.6141 23.5805 51.6141 15.209C51.6141 6.83744 45.1838 0.708984 36.5048 0.708984C27.7863 0.708984 21.3954 6.87749 21.3954 15.209C21.3954 23.5405 27.7863 29.709 36.5048 29.709ZM36.5048 24.1814C31.5735 24.1814 27.8652 20.5363 27.8652 15.209C27.8652 9.88164 31.5735 6.23661 36.5048 6.23661C41.436 6.23661 45.1443 9.88164 45.1443 15.209C45.1443 20.5363 41.436 24.1814 36.5048 24.1814Z" fill="white"/>
<path d="M73.8936 22.9797C72.2761 23.8609 70.6587 24.1814 68.9229 24.1814C63.6366 24.1814 59.9677 20.4562 59.9677 15.209C59.9677 9.88164 63.6366 6.23661 69.0018 6.23661C71.8027 6.23661 74.1303 7.23799 76.1422 9.40097L80.245 5.55567C77.5624 2.3913 73.5385 0.708984 68.6862 0.708984C59.8888 0.708984 53.4979 6.75733 53.4979 15.209C53.4979 23.6606 59.8888 29.709 68.5678 29.709C72.5128 29.709 76.6945 28.4673 79.7322 26.1441V14.7684H73.8936V22.9797Z" fill="white"/>
<path d="M97.8589 29.709C106.538 29.709 112.968 23.5805 112.968 15.209C112.968 6.83744 106.538 0.708984 97.8589 0.708984C89.1404 0.708984 82.7495 6.87749 82.7495 15.209C82.7495 23.5405 89.1404 29.709 97.8589 29.709ZM97.8589 24.1814C92.9276 24.1814 89.2193 20.5363 89.2193 15.209C89.2193 9.88164 92.9276 6.23661 97.8589 6.23661C102.79 6.23661 106.498 9.88164 106.498 15.209C106.498 20.5363 102.79 24.1814 97.8589 24.1814Z" fill="white"/>
</svg>
